<?xml version="1.0" encoding="UTF-8"?> <svg xmlns="http://www.w3.org/2000/svg" width="201" height="78" viewBox="0 0 201 78" fill="none"><g clip-path="url(#clip0_3542_3277)"><path d="M98.1082 74.3641H92.8516V42.25H101.312L104.412 60.6328C104.453 60.7818 104.481 60.9443 104.494 61.1203C104.522 61.2828 104.535 61.4385 104.535 61.5875L104.556 68.0266H104.987L105.008 61.5875C105.008 61.4385 105.014 61.2828 105.028 61.1203C105.056 60.9443 105.083 60.7818 105.11 60.6328L108.19 42.25H116.589V74.3641H111.332V60.7344C111.332 60.5854 111.339 60.4297 111.353 60.2672C111.38 60.0911 111.407 59.9286 111.435 59.7797L112.523 46.6375H112.071L107.841 74.3641H101.62L97.369 46.6375H96.9378L98.0261 59.8406C98.0535 59.976 98.074 60.1318 98.0877 60.3078C98.1014 60.4703 98.1082 60.626 98.1082 60.775V74.3641Z" fill="#03EB91"></path><path d="M118.479 42.25H131.642V47.3484H123.818V55.4937H131.436V60.5922H123.818V69.2859H131.642V74.3641H118.479V42.25Z" fill="#03EB91"></path><path d="M141.617 74.4859C138.578 74.4859 136.402 73.8292 135.087 72.5156C133.773 71.1885 133.116 68.074 133.116 63.1719H138.414C138.414 66.9906 138.674 69.1167 139.194 69.55C139.714 69.9698 140.515 70.1797 141.597 70.1797C142.664 70.1797 143.458 70.0036 143.979 69.6516C144.513 69.2859 144.779 68.1078 144.779 66.1172C144.779 64.2214 144.41 62.9281 143.671 62.2375C142.945 61.5333 141.74 60.9917 140.057 60.6125C137.264 59.7594 135.409 58.7438 134.492 57.5656C133.588 56.374 133.137 54.424 133.137 51.7156C133.137 47.8156 133.821 45.263 135.19 44.0578C136.559 42.8526 138.688 42.25 141.576 42.25C144.478 42.25 146.614 42.9339 147.983 44.3016C149.352 45.6557 150.036 48.7094 150.036 53.4625H144.718C144.718 49.6167 144.444 47.5042 143.896 47.125C143.363 46.7458 142.575 46.5563 141.535 46.5563C140.454 46.5563 139.646 46.712 139.112 47.0234C138.592 47.3349 138.332 48.574 138.332 50.7406C138.332 52.65 138.715 53.9297 139.482 54.5797C140.262 55.2161 141.487 55.7443 143.157 56.1641C145.964 56.9901 147.818 57.9651 148.722 59.0891C149.625 60.213 150.077 62.1833 150.077 65C150.077 68.7104 149.42 71.2224 148.106 72.5359C146.792 73.8359 144.629 74.4859 141.617 74.4859Z" fill="#03EB91"></path><path d="M155.831 42.25H164.27L169.219 74.3641H163.777L162.648 66.4625H157.309L156.2 74.3641H150.759L155.831 42.25ZM158.007 62.3187H162.011L160.369 47.9375C160.314 47.7073 160.273 47.4432 160.245 47.1453C160.232 46.8474 160.225 46.5766 160.225 46.3328L160.245 45.5609H159.794L159.814 46.3328C159.828 46.5766 159.821 46.8474 159.794 47.1453C159.766 47.4432 159.732 47.7141 159.691 47.9578L158.007 62.3187Z" fill="#03EB91"></path><path d="M178.041 42.25H183.38V74.3641H178.041V42.25Z" fill="#03EB91"></path><path d="M195.522 74.3641H190.183V47.3484H185.05V42.25H200.656V47.3484H193.961V47.7953H194.475C194.79 47.8089 195.043 47.9104 195.235 48.1C195.426 48.276 195.522 48.5198 195.522 48.8312V74.3641Z" fill="#03EB91"></path><path d="M170.24 16.8594L170.675 16.9609L176.601 3.25H182.359L176.371 17.3306L182.38 35.6078H176.622L172.314 23.4934L171.028 26.4184V35.6078H165.686V3.25H171.028L171.008 12.0087C171.008 12.7644 170.885 13.7475 170.696 14.4422L170.24 16.8594Z" fill="#03EB91"></path><path d="M158.663 23.5747C158.618 27.495 158.396 29.77 158.01 30.3672C157.554 31.0416 156.704 31.3909 155.485 31.3909C154.265 31.3909 153.349 31.0009 152.852 30.2453C152.355 29.4897 152.105 25.9066 152.105 19.4797C152.105 13.0528 152.355 9.30719 152.852 8.63281C153.349 7.95844 154.22 7.62937 155.485 7.62937C156.749 7.62937 157.579 7.91781 158.01 8.49062C158.396 9.01469 158.618 11.3263 158.663 15.4456H164.014C163.895 10.7128 163.263 7.52781 162.129 5.93125C160.844 4.15187 158.63 3.25 155.48 3.25C152.331 3.25 150.113 4.17219 148.77 6.03281C147.402 7.89344 146.721 12.3784 146.721 19.4594C146.721 26.5403 147.402 30.8588 148.77 32.825C150.138 34.7913 152.376 35.7703 155.501 35.7703C158.626 35.7703 160.844 34.8075 162.129 32.9062C163.263 31.2041 163.891 28.0841 164.014 23.5747H158.663Z" fill="#03EB91"></path><path d="M133.221 3.25H141.734L146.728 35.6037H141.237L140.099 27.6412H134.715L133.594 35.6037H128.104L133.221 3.25ZM135.418 23.4691H139.459L137.8 8.97812C137.697 8.50687 137.656 7.85281 137.656 7.34094L137.676 6.58531H137.221L137.241 7.36531C137.262 7.85687 137.2 8.51094 137.118 9.0025L135.418 23.4691Z" fill="#03EB91"></path><path d="M118.275 29.9569V30.4281H126.85V35.6037H114.464V3.25H119.848V28.8925C119.848 29.5262 119.413 29.9569 118.772 29.9569H118.275Z" fill="#03EB91"></path><path d="M109.258 18.4966V17.9441C110.564 17.7612 111.455 17.0422 111.891 15.795C112.367 14.7712 112.593 13.2153 112.617 11.1069V10.8631C112.617 8.20219 112.182 6.25625 111.332 5.04969C110.461 3.84312 108.679 3.25 105.989 3.25H92.8516V7.58875H96.1452V31.2691H92.8516V35.6078H106.149C108.925 35.6078 110.749 34.9944 111.62 33.7472C112.49 32.5203 112.925 30.0828 112.925 26.4631C112.925 21.1616 111.743 18.5209 109.258 18.5006V18.4966ZM101.447 7.58875H105.858C106.478 7.58875 106.893 7.89344 107.082 8.49062C107.266 9.08375 107.369 10.1887 107.369 11.765C107.369 14.9581 107.036 16.1241 105.71 16.1241H101.443V7.58875H101.447ZM107.246 30.1803C107.036 30.8547 106.626 31.2041 106.001 31.2041H101.443V20.3775H105.73C106.457 20.3775 106.954 20.8081 107.201 21.645C107.427 22.4859 107.554 23.9362 107.554 25.9837C107.554 28.0312 107.451 29.5019 107.242 30.1803H107.246Z" fill="#03EB91"></path><path d="M63.0801 0H15.77C7.06048 0 0 6.98436 0 15.6V62.4C0 71.0156 7.06048 78 15.77 78H63.0801C71.7896 78 78.8501 71.0156 78.8501 62.4V15.6C78.8501 6.98436 71.7896 0 63.0801 0Z" fill="#003527"></path><path fill-rule="evenodd" clip-rule="evenodd" d="M40.8043 55.5222L40.3197 56.0056C39.8269 56.4972 39.022 56.4972 38.5292 56.0056L38.0405 55.5181L13.6914 31.2081C13.2931 30.8141 12.6113 31.0903 12.6113 31.6469V47.0925C12.6113 47.584 12.8085 48.0594 13.1616 48.4087L29.1575 64.3744L37.1986 72.41C37.5107 72.7106 37.8516 72.9381 38.213 73.0844C38.5908 73.2428 39.0015 73.32 39.4245 73.32C39.8475 73.32 40.2581 73.2428 40.636 73.0844C40.9933 72.9422 41.3341 72.7147 41.6421 72.41L49.6832 64.3744L65.6791 48.4087C66.0323 48.0594 66.2294 47.584 66.2294 47.0925V31.6469C66.2294 31.0903 65.5477 30.81 65.1493 31.2081L40.8002 55.5181L40.8043 55.5222ZM49.6873 13.6216L41.6462 5.58593C41.0343 4.98062 40.2294 4.67999 39.4286 4.67999C39.0056 4.67999 38.5949 4.75718 38.2171 4.91562C37.8557 5.05781 37.5148 5.28531 37.2027 5.58999L29.1616 13.6256L17.6873 25.0778C17.3834 25.3825 17.3834 25.8741 17.6873 26.1747L25.4573 33.9259C25.7653 34.2347 26.2705 34.2347 26.5785 33.9259L38.3239 22.2097L38.5251 22.0066C39.0179 21.5109 39.8269 21.5109 40.3197 22.0066L40.5333 22.2219L52.2705 33.93C52.5785 34.2387 53.0836 34.2387 53.3916 33.93L61.1616 26.1787C61.4655 25.8741 61.4655 25.3825 61.1616 25.0819L49.6873 13.6297V13.6216Z" fill="#03EB91"></path><path fill-rule="evenodd" clip-rule="evenodd" d="M38.8527 60.4012L34.9266 64.2809C34.6104 64.5937 34.6104 65.0975 34.9266 65.4103L38.8527 69.29C39.1689 69.6028 39.6782 69.6028 39.9944 69.29L43.9164 65.4103C44.2326 65.0975 44.2326 64.5937 43.9164 64.2809L39.9944 60.4012C39.6782 60.0884 39.1689 60.0884 38.8527 60.4012Z" fill="#003527"></path></g><defs><clipPath id="clip0_3542_3277"><rect width="201" height="78" fill="white"></rect></clipPath></defs></svg> 